<?xml version="1.0" encoding="UTF-8" standalone="no"?>
<!DOCTYPE svg PUBLIC "-//W3C//DTD SVG 1.1//EN"
 "http://www.w3.org/Graphics/SVG/1.1/DTD/svg11.dtd">
<!-- Generated by graphviz version 2.40.1 (20161225.0304)
 -->
<!-- Title: %0 Pages: 1 -->
<svg width="650pt" height="232pt"
 viewBox="0.00 0.00 650.00 232.00" xmlns="http://www.w3.org/2000/svg" xmlns:xlink="http://www.w3.org/1999/xlink">
<g id="graph0" class="graph" transform="scale(1 1) rotate(0) translate(4 228)">
<title>%0</title>
<polygon fill="#ffffff" stroke="transparent" points="-4,4 -4,-228 646,-228 646,4 -4,4"/>
<!-- import -->
<g id="node1" class="node">
<title>import</title>
<polygon fill="#f5f5f5" stroke="#b2beb5" stroke-width="3" stroke-opacity="0.521569" points="80,-224 77,-228 56,-228 53,-224 4,-224 4,-176 80,-176 80,-224"/>
<text text-anchor="middle" x="42" y="-203.15" font-family="Roboto Condensed" font-size="10.50" fill="#000000">Import </text>
<text text-anchor="middle" x="42" y="-190.55" font-family="Roboto Condensed" font-size="10.50" fill="#000000"> WDIData.csv</text>
</g>
<!-- step1 -->
<g id="node3" class="node">
<title>step1</title>
<ellipse fill="#f5f5f5" stroke="#d3d3d3" stroke-width=".4" cx="42" cy="-116" rx="38" ry="38"/>
<ellipse fill="none" stroke="#d3d3d3" stroke-width=".4" cx="42" cy="-116" rx="42" ry="42"/>
<text text-anchor="middle" x="42" y="-125.45" font-family="Roboto Condensed" font-size="10.50" fill="#000000">Select World </text>
<text text-anchor="middle" x="42" y="-112.85" font-family="Roboto Condensed" font-size="10.50" fill="#000000"> Development </text>
<text text-anchor="middle" x="42" y="-100.25" font-family="Roboto Condensed" font-size="10.50" fill="#000000"> Indicators</text>
</g>
<!-- import&#45;&gt;step1 -->
<g id="edge4" class="edge">
<title>import&#45;&gt;step1</title>
<path fill="none" stroke="#b2beb5" stroke-width="3" d="M42,-175.7188C42,-171.5659 42,-167.4131 42,-163.2603"/>
<polygon fill="none" stroke="#b2beb5" stroke-width="3" points="43.7501,-163 42,-158 40.2501,-163 43.7501,-163"/>
</g>
<!-- export -->
<g id="node2" class="node">
<title>export</title>
<polygon fill="#b2beb5" fill-opacity="0.521569" stroke="#ffffff" stroke-width="3" points="638,-52 635,-56 614,-56 611,-52 562,-52 562,-4 638,-4 638,-52"/>
<polygon fill="none" stroke="#ffffff" stroke-width="3" points="642,-56 639,-60 618,-60 615,-56 558,-56 558,0 642,0 642,-56"/>
<text text-anchor="middle" x="600" y="-31.15" font-family="Roboto Condensed" font-size="10.50" fill="#000000">Export as </text>
<text text-anchor="middle" x="600" y="-18.55" font-family="Roboto Condensed" font-size="10.50" fill="#000000"> WDIClean.hyper</text>
</g>
<!-- step1a -->
<g id="node4" class="node">
<title>step1a</title>
<path fill="none" stroke="#b2beb5" stroke-width=".4" d="M66,-55.5C66,-55.5 18,-55.5 18,-55.5 12,-55.5 6,-49.5 6,-43.5 6,-43.5 6,-12.5 6,-12.5 6,-6.5 12,-.5 18,-.5 18,-.5 66,-.5 66,-.5 72,-.5 78,-6.5 78,-12.5 78,-12.5 78,-43.5 78,-43.5 78,-49.5 72,-55.5 66,-55.5"/>
<text text-anchor="middle" x="42" y="-40" font-family="Roboto Condensed" font-size="8.00" fill="#000000">&#45; GDP Growth % </text>
<text text-anchor="middle" x="42" y="-30.4" font-family="Roboto Condensed" font-size="8.00" fill="#000000"> &#45; Urban Population </text>
<text text-anchor="middle" x="42" y="-20.8" font-family="Roboto Condensed" font-size="8.00" fill="#000000"> &#45; R&amp;D Expenditure </text>
<text text-anchor="middle" x="42" y="-11.2" font-family="Roboto Condensed" font-size="8.00" fill="#000000"> ...</text>
</g>
<!-- step1&#45;&gt;step1a -->
<g id="edge5" class="edge">
<title>step1&#45;&gt;step1a</title>
<path fill="none" stroke="#c0c0c0" stroke-width=".55" d="M42,-73.9336C42,-67.7891 42,-61.6445 42,-55.5"/>
</g>
<!-- step2 -->
<g id="node5" class="node">
<title>step2</title>
<ellipse fill="#f5f5f5" stroke="#d3d3d3" stroke-width=".4" cx="162" cy="-116" rx="38" ry="38"/>
<ellipse fill="none" stroke="#d3d3d3" stroke-width=".4" cx="162" cy="-116" rx="42" ry="42"/>
<text text-anchor="middle" x="162" y="-125.45" font-family="Roboto Condensed" font-size="10.50" fill="#000000">Pivot each </text>
<text text-anchor="middle" x="162" y="-112.85" font-family="Roboto Condensed" font-size="10.50" fill="#000000"> year column </text>
<text text-anchor="middle" x="162" y="-100.25" font-family="Roboto Condensed" font-size="10.50" fill="#000000"> into rows</text>
</g>
<!-- step1&#45;&gt;step2 -->
<g id="edge1" class="edge">
<title>step1&#45;&gt;step2</title>
<path fill="none" stroke="#000000" stroke-width=".55" d="M84.3075,-116C93.2694,-116 102.8097,-116 112.0252,-116"/>
<polygon fill="#000000" stroke="#000000" stroke-width=".55" points="112.1701,-118.6251 119.6701,-116 112.17,-113.3751 112.1701,-118.6251"/>
</g>
<!-- step3 -->
<g id="node6" class="node">
<title>step3</title>
<ellipse fill="#f5f5f5" stroke="#d3d3d3" stroke-width=".4" cx="282" cy="-116" rx="38" ry="38"/>
<ellipse fill="none" stroke="#d3d3d3" stroke-width=".4" cx="282" cy="-116" rx="42" ry="42"/>
<text text-anchor="middle" x="282" y="-125.45" font-family="Roboto Condensed" font-size="10.50" fill="#000000">Remove </text>
<text text-anchor="middle" x="282" y="-112.85" font-family="Roboto Condensed" font-size="10.50" fill="#000000"> redundant </text>
<text text-anchor="middle" x="282" y="-100.25" font-family="Roboto Condensed" font-size="10.50" fill="#000000"> columns</text>
</g>
<!-- step2&#45;&gt;step3 -->
<g id="edge2" class="edge">
<title>step2&#45;&gt;step3</title>
<path fill="none" stroke="#000000" stroke-width=".55" d="M204.3075,-116C213.2694,-116 222.8097,-116 232.0252,-116"/>
<polygon fill="#000000" stroke="#000000" stroke-width=".55" points="232.1701,-118.6251 239.6701,-116 232.17,-113.3751 232.1701,-118.6251"/>
</g>
<!-- step4 -->
<g id="node7" class="node">
<title>step4</title>
<path fill="#f5f5f5" stroke="#d3d3d3" stroke-width=".4" d="M424,-137.5C424,-137.5 372,-137.5 372,-137.5 366,-137.5 360,-131.5 360,-125.5 360,-125.5 360,-106.5 360,-106.5 360,-100.5 366,-94.5 372,-94.5 372,-94.5 424,-94.5 424,-94.5 430,-94.5 436,-100.5 436,-106.5 436,-106.5 436,-125.5 436,-125.5 436,-131.5 430,-137.5 424,-137.5"/>
<text text-anchor="middle" x="398" y="-112.85" font-family="Roboto Condensed" font-size="10.50" fill="#000000">Filter Values</text>
</g>
<!-- step3&#45;&gt;step4 -->
<g id="edge3" class="edge">
<title>step3&#45;&gt;step4</title>
<path fill="none" stroke="#000000" stroke-width=".55" d="M324.2068,-116C333.3165,-116 342.9888,-116 352.2275,-116"/>
<polygon fill="#000000" stroke="#000000" stroke-width=".55" points="352.3642,-118.6251 359.8641,-116 352.3641,-113.3751 352.3642,-118.6251"/>
</g>
<!-- step4a -->
<g id="node8" class="node">
<title>step4a</title>
<ellipse fill="#f5f5f5" stroke="#d3d3d3" stroke-width=".4" cx="497" cy="-150" rx="25" ry="25"/>
<text text-anchor="middle" x="497" y="-158.1" font-family="Roboto Condensed" font-size="9.00" fill="#000000">Filter out </text>
<text text-anchor="middle" x="497" y="-147.3" font-family="Roboto Condensed" font-size="9.00" fill="#000000"> null row </text>
<text text-anchor="middle" x="497" y="-136.5" font-family="Roboto Condensed" font-size="9.00" fill="#000000"> values</text>
</g>
<!-- step4&#45;&gt;step4a -->
<g id="edge7" class="edge">
<title>step4&#45;&gt;step4a</title>
<path fill="none" stroke="#000000" stroke-width=".55" d="M436.276,-129.1453C448.6818,-133.4059 462.0804,-138.0074 473.1276,-141.8014"/>
</g>
<!-- step4b -->
<g id="node9" class="node">
<title>step4b</title>
<ellipse fill="#f5f5f5" stroke="#d3d3d3" stroke-width=".4" cx="497" cy="-82" rx="25" ry="25"/>
<text text-anchor="middle" x="497" y="-90.1" font-family="Roboto Condensed" font-size="9.00" fill="#000000">Filter out </text>
<text text-anchor="middle" x="497" y="-79.3" font-family="Roboto Condensed" font-size="9.00" fill="#000000"> grouped </text>
<text text-anchor="middle" x="497" y="-68.5" font-family="Roboto Condensed" font-size="9.00" fill="#000000"> countries</text>
</g>
<!-- step4&#45;&gt;step4b -->
<g id="edge8" class="edge">
<title>step4&#45;&gt;step4b</title>
<path fill="none" stroke="#000000" stroke-width=".55" d="M436.276,-102.8547C448.6818,-98.5941 462.0804,-93.9926 473.1276,-90.1986"/>
</g>
<!-- step4a&#45;&gt;step4b -->
<g id="edge6" class="edge">
<title>step4a&#45;&gt;step4b</title>
<path fill="none" stroke="#ffffff" stroke-width=".55" d="M497,-124.942C497,-119.0395 497,-113.1369 497,-107.2344"/>
</g>
<!-- step5 -->
<g id="node10" class="node">
<title>step5</title>
<ellipse fill="#f5f5f5" stroke="#d3d3d3" stroke-width=".4" cx="600" cy="-116" rx="38" ry="38"/>
<ellipse fill="none" stroke="#d3d3d3" stroke-width=".4" cx="600" cy="-116" rx="42" ry="42"/>
<text text-anchor="middle" x="600" y="-125.45" font-family="Roboto Condensed" font-size="10.50" fill="#000000">Pivot indicator </text>
<text text-anchor="middle" x="600" y="-112.85" font-family="Roboto Condensed" font-size="10.50" fill="#000000"> rows into </text>
<text text-anchor="middle" x="600" y="-100.25" font-family="Roboto Condensed" font-size="10.50" fill="#000000"> columns</text>
</g>
<!-- step4a&#45;&gt;step5 -->
<g id="edge9" class="edge">
<title>step4a&#45;&gt;step5:w</title>
<path fill="none" stroke="#000000" stroke-width=".55" d="M515.595,-133.1992C525.1228,-126.0387 537.4243,-118.831 550.3405,-116.6587"/>
<polygon fill="#000000" stroke="#000000" stroke-width=".55" points="550.7525,-119.2581 558,-116 550.3026,-114.0274 550.7525,-119.2581"/>
</g>
<!-- step4b&#45;&gt;step5 -->
<g id="edge10" class="edge">
<title>step4b&#45;&gt;step5:w</title>
<path fill="none" stroke="#000000" stroke-width=".55" d="M515.595,-98.8008C525.1228,-105.9613 537.4243,-113.169 550.3405,-115.3413"/>
<polygon fill="#000000" stroke="#000000" stroke-width=".55" points="550.3026,-117.9726 558,-116 550.7525,-112.7419 550.3026,-117.9726"/>
</g>
<!-- step5&#45;&gt;export -->
<g id="edge11" class="edge">
<title>step5&#45;&gt;export</title>
<path fill="none" stroke="#b2beb5" stroke-width="3" d="M600,-73.9443C600,-69.7826 600,-65.6208 600,-61.4591"/>
<polygon fill="none" stroke="#b2beb5" stroke-width="3" points="601.7501,-61.1875 600,-56.1875 598.2501,-61.1875 601.7501,-61.1875"/>
</g>
</g>
</svg>

